<svg width="32" height="40" viewBox="0 0 32 40" fill="none" xmlns="http://www.w3.org/2000/svg">
<g clip-path="url(#clip0_1033_803)">
<path d="M18.9251 5.29883L15.5821 5.90664" stroke="#0C71C3" stroke-width="2" stroke-miterlimit="10" stroke-linecap="round" stroke-linejoin="round"/>
<path d="M15.5821 5.90595L10.1878 4.95625C9.80796 4.88027 9.39009 4.84229 9.01021 4.84229C6.61697 4.84229 4.3377 6.0579 3.12208 8.14723C2.36233 9.47681 1.75452 11.2622 1.75452 13.6555C1.75452 15.6688 2.28635 17.6822 3.31202 19.4296L4.86953 22.1268C5.5913 23.4184 6.04716 24.8239 6.19911 26.3055C6.50301 29.7244 7.52869 33.0293 9.23814 35.9924L10.2638 37.7778C10.5297 38.2337 11.0236 38.4996 11.5554 38.4996C12.3532 38.4996 13.0369 37.8538 13.0369 37.0181V34.207C13.0369 32.7634 13.3029 31.3579 13.7967 29.9903L14.2146 28.8886C14.4425 28.2808 15.0503 27.863 15.6961 27.863C16.3799 27.863 16.9877 28.2808 17.1776 28.9266L17.5955 30.1043C18.0134 31.3579 18.2413 32.6874 18.2413 34.017V36.9801C18.2413 37.7778 18.8871 38.4616 19.7228 38.4616C20.2546 38.4616 20.7485 38.1957 21.0144 37.7398L22.0401 35.9544C23.7495 32.9913 24.7752 29.6864 25.0791 26.2675C25.1931 24.7859 25.6489 23.3804 26.4087 22.0888L27.9662 19.3917C28.9919 17.6442 29.5237 15.6309 29.5237 13.6175C29.5237 13.0477 29.4857 12.5158 29.4097 12.022" stroke="#0C71C3" stroke-width="2" stroke-miterlimit="10" stroke-linecap="round" stroke-linejoin="round"/>
<path d="M10.5677 8.30007C9.12417 7.99617 7.60464 8.41404 6.65494 9.55367C6.57897 9.62965 6.50299 9.70562 6.465 9.81959C5.89519 10.5793 5.66727 11.529 5.66727 12.4787" stroke="#0C71C3" stroke-width="2" stroke-miterlimit="10" stroke-linecap="round" stroke-linejoin="round"/>
<path d="M30.2455 9.17356C30.2455 9.17356 30.0175 9.28753 29.5997 9.40149C29.1818 9.55344 28.574 9.70539 27.8522 9.85734C27.2444 9.97131 26.5227 10.0853 25.7629 10.1992C24.6233 10.3132 23.7115 11.2249 23.5976 12.3645C23.5216 13.1243 23.4076 13.8461 23.2557 14.4539C23.1037 15.1757 22.9518 15.7835 22.7998 16.2013C22.6479 16.6192 22.5719 16.8471 22.5719 16.8471C22.5719 16.8471 22.4579 16.6192 22.344 16.2013C22.192 15.7835 22.0401 15.1757 21.8881 14.4539C21.7362 13.8081 21.6602 13.0863 21.5462 12.3266C21.4323 11.1869 20.5206 10.2752 19.3809 10.1612C18.6212 10.0853 17.7854 9.97131 17.2916 9.85734C16.5698 9.70539 15.962 9.55344 15.5441 9.40149C15.1263 9.28753 14.8983 9.17356 14.8983 9.17356C14.8983 9.17356 15.1263 9.0596 15.5441 8.94563C15.962 8.79368 16.5698 8.64173 17.2916 8.48978C17.8994 8.37581 18.6212 8.26185 19.3809 8.14789C20.5206 8.03392 21.4323 7.12221 21.5462 5.98258C21.6222 5.22282 21.7362 4.50105 21.8881 3.89324C22.0401 3.17147 22.192 2.56366 22.344 2.14579C22.4959 1.72793 22.5719 1.5 22.5719 1.5C22.5719 1.5 22.6859 1.72793 22.7998 2.14579C22.9518 2.56366 23.1037 3.17147 23.2557 3.89324C23.4076 4.53903 23.5216 5.2608 23.5976 6.02056C23.7115 7.1602 24.6233 8.07191 25.7629 8.18588C26.5227 8.26185 27.3584 8.37581 27.8522 8.48978C28.574 8.64173 29.1818 8.79368 29.5997 8.94563C30.0175 9.0596 30.2455 9.17356 30.2455 9.17356Z" stroke="#86B8E1" stroke-width="2" stroke-miterlimit="10" stroke-linecap="round" stroke-linejoin="round"/>
</g>
<defs>
<clipPath id="clip0_1033_803">
<rect width="32" height="40" fill="white"/>
</clipPath>
</defs>
</svg>
