<svg width="32" height="40" viewBox="0 0 32 40" fill="none" xmlns="http://www.w3.org/2000/svg">
<path d="M8.28851 15.4595L8.1384 14.8966C7.72562 13.4331 7.20028 12.0071 6.67492 10.5812C6.33719 9.68055 6.18707 8.74241 6.18707 7.76675C6.18707 6.0781 6.59987 4.80224 7.16275 3.8641C8.02583 2.36309 9.63942 1.5 11.3281 1.5C11.5907 1.5 11.8909 1.53753 12.1911 1.57505L16.0187 2.25051L19.8463 1.57505C20.109 1.53753 20.4092 1.5 20.7094 1.5C22.4356 1.5 24.0492 2.36309 24.8748 3.8641C25.1374 4.35193 25.4001 4.91482 25.5502 5.55275C25.7378 6.19068 25.8129 6.94119 25.8129 7.76675C25.8129 8.74241 25.6628 9.68055 25.325 10.5812C24.7997 12.0446 24.2368 13.5457 23.7865 15.0467L23.6739 15.4595" stroke="#0C71C3" stroke-width="2" stroke-miterlimit="10" stroke-linecap="round" stroke-linejoin="round"/>
<path d="M23.7115 15.4595H8.28851V21.5761H23.7115V15.4595Z" stroke="#0C71C3" stroke-width="2" stroke-miterlimit="10" stroke-linecap="round" stroke-linejoin="round"/>
<path d="M11.966 23.1895L15.8311 23.9775C17.2196 24.2777 18.5329 24.803 19.6962 25.6286L19.9965 25.8538" stroke="#86B8E1" stroke-width="2" stroke-miterlimit="10" stroke-linecap="round" stroke-linejoin="round"/>
<path d="M11.966 27.0923L15.7936 27.8803C17.2946 28.1805 18.7206 28.7809 19.9965 29.6065" stroke="#86B8E1" stroke-width="2" stroke-miterlimit="10" stroke-linecap="round" stroke-linejoin="round"/>
<path d="M11.966 30.8828L15.7936 31.6708C16.4691 31.821 17.1445 32.0086 17.82 32.2713C18.5705 32.5715 19.321 32.9467 19.9965 33.3595" stroke="#86B8E1" stroke-width="2" stroke-miterlimit="10" stroke-linecap="round" stroke-linejoin="round"/>
<path d="M12.041 34.2593L15.7936 35.0473C16.8068 35.2725 17.7824 35.6102 18.7206 36.023" stroke="#86B8E1" stroke-width="2" stroke-miterlimit="10" stroke-linecap="round" stroke-linejoin="round"/>
<path d="M9.86459 21.6138L11.966 23.2274V33.697C11.966 34.485 12.3037 35.198 12.8666 35.7233L15.9812 38.5002" stroke="#0C71C3" stroke-width="2" stroke-miterlimit="10" stroke-linecap="round" stroke-linejoin="round"/>
<path d="M22.0979 21.6138L19.9965 23.2274V33.697C19.9965 34.485 19.6587 35.198 19.0958 35.7233L15.9812 38.5002" stroke="#0C71C3" stroke-width="2" stroke-miterlimit="10" stroke-linecap="round" stroke-linejoin="round"/>
<path d="M10.6151 17.4106V19.1743H16.4315" stroke="#86B8E1" stroke-width="2" stroke-miterlimit="10" stroke-linecap="round" stroke-linejoin="round"/>
<path d="M16.4315 4.87751L19.2084 4.2771C20.4468 4.01442 21.7602 4.38968 22.5482 5.32781C22.6232 5.40286 22.6608 5.47792 22.7358 5.55297C23.2236 6.1909 23.4113 7.01646 23.4113 7.84202" stroke="#0C71C3" stroke-width="2" stroke-miterlimit="10" stroke-linecap="round" stroke-linejoin="round"/>
</svg>
