<svg width="32" height="40" viewBox="0 0 32 40" fill="none" xmlns="http://www.w3.org/2000/svg">
<path d="M10.3754 4.19599L7.98622 3.76461C7.68757 3.69825 7.35573 3.69824 7.02389 3.69824C5.09926 3.69824 3.27418 4.69374 2.34505 6.35291C1.74775 7.41478 1.25 8.87484 1.25 10.7663C1.25 11.5627 1.34954 12.3923 1.54864 13.1555C1.74774 13.9187 2.0464 14.6819 2.47779 15.3788L3.70556 17.5357C4.30286 18.5644 4.66788 19.6926 4.76743 20.854C4.99971 23.5751 5.82929 26.2297 7.18981 28.5858L8.01939 30.0126C8.21849 30.3777 8.61671 30.6099 9.04809 30.6099C9.37992 30.6099 9.67857 30.4772 9.87767 30.2781C10.11 30.079 10.2095 29.7804 10.2095 29.4485V27.0593C10.2095 25.9975 10.3754 24.9356 10.7404 23.9069L11.0723 22.9446C11.2382 22.4468 11.7359 22.0818 12.2669 22.0818C12.7978 22.0818 13.2624 22.4137 13.4615 22.9114C13.6938 23.5087 13.8265 24.106 13.8929 24.7365L14.1251 27.0593" stroke="#0C71C3" stroke-width="2" stroke-miterlimit="10" stroke-linecap="round" stroke-linejoin="round"/>
<path d="M14.2247 4.1958C14.822 4.72673 15.187 5.48995 15.187 6.35272C15.187 7.94552 13.8929 9.23968 12.3001 9.23968C10.7073 9.23968 9.4131 7.94552 9.4131 6.35272C9.4131 5.48995 9.77813 4.72673 10.3754 4.1958" stroke="#0C71C3" stroke-width="2" stroke-miterlimit="10" stroke-linecap="round" stroke-linejoin="round"/>
<path d="M27.9958 22.8119L23.9474 31.2405C23.4165 32.3023 22.1555 32.7669 21.0937 32.236L18.439 30.9418C17.3771 30.4109 16.9126 29.1499 17.4435 28.088L21.4919 19.6595C22.0228 18.5976 23.2838 18.133 24.3456 18.664L27.0003 19.9581C28.0622 20.4559 28.5267 21.75 27.9958 22.8119Z" stroke="#86B8E1" stroke-width="1.5" stroke-miterlimit="10" stroke-linecap="round" stroke-linejoin="round"/>
<path d="M24.047 18.5313L24.0802 13.3878C24.0802 13.3878 25.7061 12.7574 26.8012 14.682C27.1994 15.3789 27.8962 15.6111 28.6595 15.6443C29.489 15.6775 30.02 15.7439 30.75 16.1753L27.2989 20.0577" stroke="#86B8E1" stroke-width="1.5" stroke-miterlimit="10" stroke-linecap="round" stroke-linejoin="round"/>
<path d="M28.7922 15.6777L27.1662 17.5692" stroke="#86B8E1" stroke-width="1.5" stroke-miterlimit="10" stroke-linecap="round" stroke-linejoin="round"/>
<path d="M18.1071 30.8091L14.1251 34.0279C14.1251 34.0279 14.6561 35.687 16.8462 35.322C17.6426 35.1893 18.2731 35.6207 18.7708 36.1848C19.3017 36.8153 19.6668 37.1803 20.4963 37.479L21.3923 32.3687" stroke="#86B8E1" stroke-width="1.5" stroke-miterlimit="10" stroke-linecap="round" stroke-linejoin="round"/>
<path d="M16.8462 35.3219L17.7753 33.895" stroke="#86B8E1" stroke-width="1.5" stroke-miterlimit="10" stroke-linecap="round" stroke-linejoin="round"/>
</svg>
