<svg width="32" height="40" viewBox="0 0 32 40" fill="none" xmlns="http://www.w3.org/2000/svg">
<path d="M13.9863 36.4117C11.8344 36.4117 9.77597 36.5053 8.37251 36.5988C6.22055 36.786 4.25572 35.4761 3.22652 33.3241C2.47801 31.5464 1.91664 28.9266 2.0102 24.9034C2.0102 24.342 2.10373 12.3659 8.93387 6.00357C10.8987 4.22586 13.3314 3.38379 15.8576 3.38379H16.1383C18.6645 3.38379 21.0972 4.22586 23.062 6.00357C29.8921 12.3659 29.9857 24.4356 29.9857 24.9034C30.0792 28.5524 29.705 30.985 29.1436 32.7627C28.3016 35.289 26.056 36.786 23.717 36.5988C22.1264 36.5053 19.7873 36.4117 18.0095 36.3182H13.9863V36.4117Z" stroke="#0C71C3" stroke-width="2" stroke-miterlimit="10" stroke-linecap="round" stroke-linejoin="round"/>
<path d="M10.3374 22.0967C7.61449 22.0031 4.97414 21.7224 2.45755 21.3481" stroke="#86B8E1" stroke-width="2" stroke-miterlimit="10" stroke-linecap="round" stroke-linejoin="round"/>
<path d="M28.7066 21.7212C26.0953 22.0019 23.3576 22.189 20.5358 22.189" stroke="#86B8E1" stroke-width="2" stroke-miterlimit="10" stroke-linecap="round" stroke-linejoin="round"/>
<path d="M20.6293 16.0151H10.3373V26.3071H20.6293V16.0151Z" stroke="#86B8E1" stroke-width="2" stroke-miterlimit="10" stroke-linecap="round" stroke-linejoin="round"/>
<path d="M15.3898 16.0154V12.46" stroke="#86B8E1" stroke-width="2" stroke-miterlimit="10" stroke-linecap="round" stroke-linejoin="round"/>
<path d="M15.3898 26.3076V29.7695" stroke="#86B8E1" stroke-width="2" stroke-miterlimit="10" stroke-linecap="round" stroke-linejoin="round"/>
</svg>
