<svg width="32" height="40" viewBox="0 0 32 40" fill="none" xmlns="http://www.w3.org/2000/svg">
<path d="M16.0213 3.99674L21.4764 3.01653C21.86 2.93129 22.2862 2.93129 22.6697 2.93129C25.099 2.93129 27.4003 4.16721 28.6362 6.29811C29.4034 7.66189 30 9.45184 30 11.8811C30 13.9267 29.446 15.9724 28.4232 17.7624L26.8463 20.4899C26.1218 21.7684 25.653 23.2175 25.5251 24.7091C25.2268 28.1611 24.1614 31.528 22.4566 34.5112L21.4338 36.3438C21.1781 36.8126 20.6667 37.1109 20.1553 37.1109C19.3455 37.1109 18.6636 36.429 18.6636 35.6193V32.7639C18.6636 31.3149 18.4079 29.8659 17.8965 28.5021L17.4703 27.394C17.2572 26.7548 16.6179 26.3286 15.9787 26.3286C15.2968 26.3286 14.7001 26.7548 14.4444 27.394L14.0183 28.5873C13.5921 29.8659 13.3364 31.2296 13.3364 32.5508V35.5767C13.3364 36.3864 12.6545 37.0683 11.8447 37.0683C11.2907 37.0683 10.8219 36.77 10.5662 36.3012L9.54336 34.4686C7.79603 31.4427 6.77322 28.1185 6.47489 24.6665C6.34704 23.1748 5.8782 21.7258 5.15369 20.4473L3.57684 17.7197C2.55401 15.9298 2 13.9267 2 11.8385C2 9.45184 2.59663 7.61927 3.36375 6.25549C4.55706 4.12459 6.85844 2.88867 9.28767 2.88867C9.71385 2.88867 10.0974 2.93129 10.4809 2.97391L16.0213 3.99674Z" stroke="#0C71C3" stroke-width="2" stroke-miterlimit="10" stroke-linecap="round" stroke-linejoin="round"/>
<path d="M20.8797 23.0896C21.9452 21.598 22.8828 19.9785 23.7352 18.359C24.5023 16.8674 25.3546 15.4184 25.7808 13.7989C26.2496 11.9663 26.1217 9.7502 24.758 8.30119C22.414 5.82934 18.9193 7.49145 16.4475 8.81261H16.1065C13.5921 7.44883 10.14 5.82934 7.79604 8.30119C6.43226 9.7502 6.3044 11.9663 6.7732 13.7989C7.24199 15.7167 8.35004 17.3788 9.2024 19.1688C9.75644 20.3621 10.3531 21.5128 11.035 22.6208L11.1202 22.7913C11.1202 22.7913 12.4414 20.1916 12.9102 18.6147C12.9102 18.5721 12.9528 18.5295 12.9528 18.4443C13.8904 15.5036 18.1096 15.5462 19.0045 18.5295C19.0045 18.5721 19.0472 18.6147 19.0472 18.6574C19.4734 20.149 20.8797 23.0896 20.8797 23.0896Z" stroke="#86B8E1" stroke-width="2" stroke-miterlimit="10" stroke-linecap="round" stroke-linejoin="round"/>
<path d="M10.9924 22.6211C10.9924 22.6211 10.4384 26.6272 10.9924 29.44C11.1629 30.2071 11.2481 30.8037 11.3333 31.3152" stroke="#86B8E1" stroke-width="2" stroke-miterlimit="10" stroke-linecap="round" stroke-linejoin="round"/>
<path d="M21.0502 22.8765C21.1781 23.8141 21.4764 27.053 21.0076 29.397C20.8371 30.1641 20.7519 30.8034 20.6667 31.2722" stroke="#86B8E1" stroke-width="2" stroke-miterlimit="10" stroke-linecap="round" stroke-linejoin="round"/>
</svg>
