<svg width="32" height="40" viewBox="0 0 32 40" fill="none" xmlns="http://www.w3.org/2000/svg">
<path d="M15.7716 5.0373C17.1769 5.07243 17.3174 4.3698 20.0928 4.01848C20.5496 3.94822 20.7955 3.94822 21.0063 3.94822C22.6575 3.94822 24.414 4.75625 25.2923 6.23178C26.4166 8.16403 25.3977 10.4476 24.6248 12.3096C23.9925 13.75 23.2898 15.1552 22.6575 16.5957C22.0953 17.8604 21.463 19.2305 21.2522 20.6007C20.7603 23.8679 20.2334 27.8729 20.0928 28.9972C20.0577 29.2782 19.9172 29.5944 19.6361 29.7349C19.4605 29.8403 19.2848 29.8755 19.074 29.8755C18.4416 29.8755 17.9498 29.3836 17.9498 28.7512C17.5634 25.765 17.212 22.814 16.8256 19.8278C16.7904 19.4413 16.5445 19.09 16.1581 18.9846C16.0527 18.9495 15.9473 18.9495 15.8419 18.9495C15.5257 18.9495 15.2447 19.1251 15.0339 19.3711C14.9285 19.5116 14.8933 19.6872 14.8582 19.8278L13.9096 28.7512C13.9096 29.3836 13.4178 29.8755 12.7854 29.8755C12.6449 29.8755 12.4692 29.8403 12.3287 29.7701C12.0125 29.6295 11.8017 29.3133 11.7666 28.962C11.6612 27.8378 11.2748 24.149 10.8532 20.9871C10.5721 18.7387 9.30739 16.5254 8.39396 14.4526C7.26974 11.888 4.77539 8.76127 6.63737 5.95073C7.37514 4.86164 9.13173 3.94822 10.8532 3.91309C11.0991 3.91309 11.345 3.94822 11.7666 3.98335C14.2961 4.29953 14.4015 5.00217 15.7716 5.0373Z" stroke="#0C71C3" stroke-width="2" stroke-miterlimit="10" stroke-linecap="round" stroke-linejoin="round"/>
<path d="M11.6261 14.0876L12.0828 13.7363C12.4693 13.4201 12.9611 13.3499 13.4178 13.5606L13.453 13.5958C13.8745 13.7714 14.3664 13.6309 14.6123 13.2445L15.4203 11.9446C15.7014 11.4879 16.404 11.4879 16.6851 11.9446L17.458 13.1742C17.6688 13.5958 18.1606 13.7714 18.6173 13.6309L18.8632 13.5606C19.2146 13.4552 19.6361 13.4904 19.9523 13.666L20.4442 13.9822" stroke="#86B8E1" stroke-width="2" stroke-miterlimit="10" stroke-linecap="round" stroke-linejoin="round"/>
<path d="M8.6399 28.3735C8.5345 27.3898 8.07779 26.4764 7.26976 25.8791C6.532 25.317 5.6537 25.0711 4.74027 25.2116C4.28356 25.2819 3.86198 25.4575 3.47553 25.7035C2.52697 26.3358 2 27.4249 2 28.5491V37.0861" stroke="#86B8E1" stroke-width="2" stroke-miterlimit="10" stroke-linecap="round" stroke-linejoin="round"/>
<path d="M23.3601 28.3735C23.4655 27.3898 23.9222 26.4764 24.7302 25.8791C25.468 25.317 26.3463 25.0711 27.2597 25.2116C27.7164 25.2819 28.138 25.4575 28.5245 25.7035C29.473 26.3358 30 27.4249 30 28.5491V37.0861" stroke="#86B8E1" stroke-width="2" stroke-miterlimit="10" stroke-linecap="round" stroke-linejoin="round"/>
</svg>
