<svg width="32" height="40" viewBox="0 0 32 40" fill="none" xmlns="http://www.w3.org/2000/svg">
<path d="M9.51413 25.5454V23.3535H13.0355V25.4017" stroke="#86B8E1" stroke-width="2" stroke-miterlimit="10" stroke-linecap="round" stroke-linejoin="round"/>
<path d="M19.1441 25.4376V23.3535H22.6655V25.4017" stroke="#86B8E1" stroke-width="2" stroke-miterlimit="10" stroke-linecap="round" stroke-linejoin="round"/>
<path d="M13.0356 28.0967C13.862 28.1326 14.5447 28.7435 14.7603 29.534L15.7664 33.0913C15.982 33.9178 16.018 34.6005 16.018 35.1395C16.018 35.966 15.3353 36.6487 14.4729 36.6487H11.3108C10.4843 36.6487 9.80162 35.966 9.76569 35.1395C9.76569 34.6005 9.8016 33.9178 10.0172 33.0913L11.0593 29.4621C11.2749 28.7075 11.9576 28.1326 12.7481 28.0967C12.8918 28.0967 12.9637 28.0967 13.0356 28.0967Z" stroke="#86B8E1" stroke-width="2" stroke-miterlimit="10" stroke-linecap="round" stroke-linejoin="round"/>
<path d="M6.02866 31.1873C5.45373 30.4686 3.18996 28.8157 2.29164 28.8517C2.29164 28.8517 1.46521 29.1032 1.50114 30.4686L1.71673 34.4212C1.75266 35.0321 1.96825 35.607 2.36351 36.0741C2.39944 36.1101 2.39945 36.1101 2.43538 36.146C2.79471 36.4335 6.49578 36.3616 6.49578 36.3616" stroke="#0C71C3" stroke-width="2" stroke-miterlimit="10" stroke-linecap="round" stroke-linejoin="round"/>
<path d="M10.5562 31.2948C10.0531 30.0731 8.00497 28.5639 7.53785 28.6358C7.10665 28.7076 6.74731 29.031 6.60358 29.4622C6.31612 30.2527 5.77715 31.9775 5.63342 32.9118C5.48968 33.882 5.56154 35.1037 5.59747 35.6067C5.6334 35.8583 5.74121 36.0739 5.92087 36.2176C6.24427 36.4691 9.80161 36.4691 9.80161 36.4691" stroke="#86B8E1" stroke-width="2" stroke-miterlimit="10" stroke-linecap="round" stroke-linejoin="round"/>
<path d="M25.9714 31.2948C26.5463 30.5761 28.81 28.8513 29.7084 28.8873C29.7084 28.8873 30.5348 29.1388 30.4989 30.5042L30.2833 34.4568C30.2474 35.0677 30.0318 35.6426 29.6365 36.1098C29.6006 36.1457 29.6006 36.1457 29.5646 36.1816C29.2053 36.4691 25.6479 36.3972 25.6479 36.3972" stroke="#0C71C3" stroke-width="2" stroke-miterlimit="10" stroke-linecap="round" stroke-linejoin="round"/>
<path d="M21.4797 31.1865C22.6655 29.282 23.995 28.5634 24.4622 28.6352C24.8933 28.7071 25.2527 29.0305 25.3964 29.4617C25.6839 30.2522 26.2229 31.977 26.3666 32.9112C26.5103 33.8814 26.4385 35.1031 26.4025 35.6062C26.3666 35.8577 26.2588 36.0733 26.0791 36.217C25.7557 36.4686 22.2703 36.4686 22.2703 36.4686" stroke="#86B8E1" stroke-width="2" stroke-miterlimit="10" stroke-linecap="round" stroke-linejoin="round"/>
<path d="M19.0363 28.0967C18.2099 28.1326 17.5271 28.7435 17.3115 29.534L16.3054 33.0913C16.0898 33.9178 16.0539 34.6005 16.0539 35.1395C16.0539 35.966 16.7366 36.6487 17.599 36.6487H20.7611C21.5875 36.6487 22.2702 35.966 22.3062 35.1395C22.3062 34.6005 22.2702 33.9178 22.0546 33.0913L21.0126 29.4621C20.797 28.7075 20.1143 28.1326 19.3238 28.0967C19.18 28.0967 19.1082 28.0967 19.0363 28.0967Z" stroke="#86B8E1" stroke-width="2" stroke-miterlimit="10" stroke-linecap="round" stroke-linejoin="round"/>
<path d="M1.53707 30.002V29.8583C1.3574 28.0257 2.65099 26.4087 4.48356 26.1572C8.07683 25.6901 12.1013 25.3667 16.557 25.4026C20.4736 25.4026 24.1029 25.6901 27.3727 26.0853C29.1334 26.3009 30.3551 27.8101 30.3551 29.499" stroke="#0C71C3" stroke-width="2" stroke-miterlimit="10" stroke-linecap="round" stroke-linejoin="round"/>
<path d="M12.5684 9.12988V11.717C12.5684 11.8608 12.4966 12.0045 12.3888 12.1123L11.6342 12.831C11.4186 13.0466 11.0593 13.0466 10.8437 12.831L10.0891 12.1123C9.98126 12.0045 9.90939 11.8608 9.90939 11.717V9.12988" stroke="#86B8E1" stroke-width="2" stroke-miterlimit="10" stroke-linecap="round" stroke-linejoin="round"/>
<path d="M22.1984 9.12988V11.717C22.1984 11.8608 22.1265 12.0045 22.0187 12.1123L21.2642 12.831C21.0486 13.0466 20.6892 13.0466 20.4736 12.831L19.719 12.1123C19.6112 12.0045 19.5394 11.8608 19.5394 11.717V9.12988" stroke="#86B8E1" stroke-width="2" stroke-miterlimit="10" stroke-linecap="round" stroke-linejoin="round"/>
<path d="M1.50125 4.35059V7.47674C1.50125 9.12964 3.04636 10.3873 4.66333 10.028C7.68168 9.34524 11.3827 8.84218 15.5869 8.80625C20.0785 8.77032 23.9592 9.34524 27.1572 10.028C28.7742 10.3873 30.3193 9.12964 30.3193 7.47674V4.35059" stroke="#0C71C3" stroke-width="2" stroke-miterlimit="10" stroke-linecap="round" stroke-linejoin="round"/>
</svg>
