<svg width="57" height="43" viewBox="0 0 57 43" fill="none" xmlns="http://www.w3.org/2000/svg">
<path d="M12.3163 42.8032C8.93164 42.8032 6.16241 41.675 4.00857 39.4186C1.95728 37.1622 0.931641 34.1366 0.931641 30.3417C0.931641 23.675 3.13677 17.8801 7.54702 12.9571C12.0598 8.03399 17.4445 3.98271 23.7009 0.803223L25.2393 3.4186C22.6752 5.05963 20.265 7.1622 18.0086 9.7263C15.8547 12.2904 14.1624 15.0596 12.9316 18.034L17.2393 21.2648C18.9829 22.393 20.4188 23.9314 21.547 25.8801C22.6752 27.7263 23.2393 29.5212 23.2393 31.2648C23.2393 34.5468 22.2137 37.316 20.1624 39.5725C18.2137 41.7263 15.5983 42.8032 12.3163 42.8032ZM44.0086 42.8032C40.624 42.8032 37.8547 41.675 35.7009 39.4186C33.6496 37.1622 32.6239 34.1366 32.6239 30.3417C32.6239 23.675 34.8291 17.8801 39.2393 12.9571C43.7522 8.03399 49.1368 3.98271 55.3932 0.803223L56.9316 3.4186C54.3675 5.05963 51.9573 7.1622 49.7009 9.7263C47.547 12.2904 45.8547 15.0596 44.6239 18.034L48.9316 21.2648C50.6752 22.393 52.1111 23.9314 53.2393 25.8801C54.3675 27.7263 54.9316 29.5212 54.9316 31.2648C54.9316 34.5468 53.906 37.316 51.8547 39.5725C49.906 41.7263 47.2906 42.8032 44.0086 42.8032Z" fill="#E1EDF8"/>
</svg>
